<svg width="51" height="44" viewBox="0 0 51 44" fill="none" xmlns="http://www.w3.org/2000/svg">
<path d="M19.125 8.25C19.125 10.438 18.1175 12.5365 16.3242 14.0836C14.5309 15.6308 12.0986 16.5 9.5625 16.5C7.02637 16.5 4.59411 15.6308 2.80079 14.0836C1.00747 12.5365 0 10.438 0 8.25C0 6.06196 1.00747 3.96354 2.80079 2.41637C4.59411 0.869194 7.02637 0 9.5625 0C12.0986 0 14.5309 0.869194 16.3242 2.41637C18.1175 3.96354 19.125 6.06196 19.125 8.25Z" fill="white"/>
<path d="M28.6875 16.5C26.1514 16.5 23.7191 15.6308 21.9258 14.0836C20.1325 12.5365 19.125 10.438 19.125 8.25C19.125 6.06196 20.1325 3.96354 21.9258 2.41637C23.7191 0.869194 26.1514 0 28.6875 0C31.2236 0 33.6559 0.869194 35.4492 2.41637C37.2425 3.96354 38.25 6.06196 38.25 8.25C38.25 10.438 37.2425 12.5365 35.4492 14.0836C33.6559 15.6308 31.2236 16.5 28.6875 16.5Z" fill="white"/>
<path d="M28.6875 16.5H30.2812C31.8275 16.4998 33.3211 16.9845 34.4839 17.8638C35.6467 18.7431 36.3995 19.957 36.6021 21.2795L46.5152 17.479C47.0004 17.2925 47.532 17.2135 48.0616 17.2493C48.5911 17.2851 49.102 17.4346 49.5476 17.684C49.9932 17.9335 50.3595 18.2751 50.6131 18.6778C50.8668 19.0805 50.9998 19.5315 51 19.9898V40.5103C50.9995 40.9682 50.8665 41.4188 50.613 41.8211C50.3596 42.2235 49.9936 42.5648 49.5484 42.8142C49.1033 43.0636 48.593 43.2132 48.0638 43.2493C47.5347 43.2854 47.0035 43.2069 46.5184 43.021L36.6021 39.2205C36.3995 40.543 35.6467 41.7569 34.4839 42.6362C33.3211 43.5155 31.8275 44.0002 30.2812 44H6.375C4.68424 44 3.06274 43.4205 1.86719 42.3891C0.67165 41.3576 0 39.9587 0 38.5V22C0 20.5413 0.67165 19.1424 1.86719 18.1109C3.06274 17.0795 4.68424 16.5 6.375 16.5H28.6875Z" fill="white"/>
</svg>
