<svg width="64" height="64" viewBox="0 0 64 64" fill="none" xmlns="http://www.w3.org/2000/svg">
<path d="M35.1388 32C36.8036 32 38.4003 32.6613 39.5775 33.8386C40.7547 35.0158 41.4161 36.6125 41.4161 38.2773H35.1388C33.4739 38.2773 31.8773 38.9387 30.7 40.1159C29.5228 41.2931 28.8615 42.8898 28.8615 44.5546V53.6473C27.3988 53.8607 25.8264 53.9706 24.1535 53.9706C13.4444 53.9706 6.89087 49.4321 6.89087 42.9853V38.2773C6.89087 36.6125 7.55223 35.0158 8.72945 33.8386C9.90667 32.6613 11.5033 32 13.1682 32H35.1388ZM42.5837 32.5116C43.8203 34.106 44.5547 36.1054 44.5547 38.2773H57.1094C57.1094 36.6125 56.448 35.0158 55.2708 33.8386C54.0935 32.6613 52.4969 32 50.832 32H42.1537L42.5837 32.5116ZM24.1535 6.89075C25.5961 6.89075 27.0246 7.17489 28.3574 7.72695C29.6902 8.27902 30.9012 9.08819 31.9212 10.1083C32.9413 11.1283 33.7505 12.3394 34.3026 13.6722C34.8546 15.0049 35.1388 16.4334 35.1388 17.876C35.1388 19.3186 34.8546 20.7471 34.3026 22.0799C33.7505 23.4127 32.9413 24.6237 31.9212 25.6438C30.9012 26.6639 29.6902 27.4731 28.3574 28.0251C27.0246 28.5772 25.5961 28.8613 24.1535 28.8613C21.24 28.8613 18.4458 27.704 16.3857 25.6438C14.3256 23.5837 13.1682 20.7895 13.1682 17.876C13.1682 14.9626 14.3256 12.1684 16.3857 10.1083C18.4458 8.04812 21.24 6.89075 24.1535 6.89075ZM46.1241 13.1681C48.2051 13.1681 50.2009 13.9948 51.6725 15.4663C53.144 16.9378 53.9707 18.9336 53.9707 21.0147C53.9707 23.0958 53.144 25.0916 51.6725 26.5631C50.2009 28.0346 48.2051 28.8613 46.1241 28.8613C44.043 28.8613 42.0472 28.0346 40.5756 26.5631C39.1041 25.0916 38.2774 23.0958 38.2774 21.0147C38.2774 18.9336 39.1041 16.9378 40.5756 15.4663C42.0472 13.9948 44.043 13.1681 46.1241 13.1681ZM60.248 46.1239V55.5399C60.248 56.7885 59.752 57.986 58.8691 58.8689C57.9861 59.7519 56.7887 60.2479 55.54 60.2479H36.7081C35.4595 60.2479 34.262 59.7519 33.379 58.8689C32.4961 57.986 32.0001 56.7885 32.0001 55.5399V46.1239C32.0001 44.8753 32.4961 43.6778 33.379 42.7949C34.262 41.912 35.4595 41.416 36.7081 41.416H55.54C56.7887 41.416 57.9861 41.912 58.8691 42.7949C59.752 43.6778 60.248 44.8753 60.248 46.1239ZM55.54 57.1092C55.54 56.693 55.7054 56.2939 55.9997 55.9995C56.294 55.7052 56.6931 55.5399 57.1094 55.5399V52.4012C55.8607 52.4012 54.6632 52.8973 53.7803 53.7802C52.8974 54.6631 52.4014 55.8606 52.4014 57.1092H55.54ZM57.1094 46.1239C56.6931 46.1239 56.294 45.9586 55.9997 45.6643C55.7054 45.37 55.54 44.9708 55.54 44.5546H52.4014C52.4014 45.8032 52.8974 47.0007 53.7803 47.8837C54.6632 48.7666 55.8607 49.2626 57.1094 49.2626V46.1239ZM36.7081 44.5546C36.7081 44.9708 36.5428 45.37 36.2484 45.6643C35.9541 45.9586 35.555 46.1239 35.1388 46.1239V49.2626C36.3874 49.2626 37.5849 48.7666 38.4678 47.8837C39.3507 47.0007 39.8467 45.8032 39.8467 44.5546H36.7081ZM35.1388 55.5399C35.555 55.5399 35.9541 55.7052 36.2484 55.9995C36.5428 56.2939 36.7081 56.693 36.7081 57.1092H39.8467C39.8467 55.8606 39.3507 54.6631 38.4678 53.7802C37.5849 52.8973 36.3874 52.4012 35.1388 52.4012V55.5399ZM46.1241 46.1239C44.8754 46.1239 43.6779 46.62 42.795 47.5029C41.9121 48.3858 41.4161 49.5833 41.4161 50.8319C41.4161 52.0806 41.9121 53.278 42.795 54.161C43.6779 55.0439 44.8754 55.5399 46.1241 55.5399C47.3727 55.5399 48.5702 55.0439 49.4531 54.161C50.336 53.278 50.832 52.0806 50.832 50.8319C50.832 49.5833 50.336 48.3858 49.4531 47.5029C48.5702 46.62 47.3727 46.1239 46.1241 46.1239Z" fill="white"/>
</svg>
