<svg width="64" height="64" viewBox="0 0 64 64" fill="none" xmlns="http://www.w3.org/2000/svg">
<path d="M26.0613 25C27.4725 23.292 29.6089 22.2 32 22.2C34.3913 22.2 36.5277 23.292 37.9389 25C38.868 26.1265 39.4576 27.4939 39.639 28.9428C39.8204 30.3917 39.5861 31.8623 38.9634 33.183C38.3407 34.5038 37.3553 35.6203 36.1221 36.4022C34.8889 37.1842 33.4588 37.5994 31.9987 37.5994C30.5385 37.5994 29.1084 37.1842 27.8752 36.4022C26.642 35.6203 25.6566 34.5038 25.0339 33.183C24.4112 31.8623 24.1769 30.3917 24.3583 28.9428C24.5397 27.4939 25.1294 26.1265 26.0584 25H26.0613ZM42.5 29.9C42.5 28.1304 42.0633 26.4616 41.2905 25H53.0001C54.114 25 55.1822 25.4425 55.9699 26.2301C56.7576 27.0178 57.2001 28.0861 57.2001 29.2V30.6C57.2001 35.0436 53.8233 39.5936 47.9181 41.1952C47.3112 40.1051 46.424 39.197 45.3484 38.5649C44.2727 37.9328 43.0477 37.5997 41.8001 37.6H39.1401C40.2013 36.618 41.0478 35.4269 41.6261 34.1017C42.2043 32.7765 42.5019 31.3459 42.5 29.9ZM41.8001 40.4C42.352 40.3985 42.8988 40.5061 43.4091 40.7167C43.9193 40.9272 44.3829 41.2365 44.7732 41.6268C45.1635 42.0171 45.4728 42.4807 45.6834 42.991C45.8939 43.5012 46.0015 44.048 46.0001 44.6V46C46.0001 51.5188 40.7921 57.2 32 57.2C23.208 57.2 18 51.5188 18 46V44.6C17.9986 44.048 18.1062 43.5012 18.3167 42.991C18.5273 42.4807 18.8366 42.0171 19.2269 41.6268C19.6172 41.2365 20.0808 40.9272 20.591 40.7167C21.1013 40.5061 21.6481 40.3985 22.2001 40.4H41.8001ZM6.80005 30.6C6.80005 35.0436 10.1768 39.5936 16.082 41.1952C16.6889 40.1051 17.5761 39.197 18.6517 38.5649C19.7274 37.9328 20.9524 37.5997 22.2001 37.6H24.8601C23.7988 36.618 22.9523 35.4269 22.374 34.1017C21.7958 32.7765 21.4982 31.3459 21.5 29.9C21.5 28.1304 21.9369 26.4616 22.7125 25H11C9.88614 25 8.81785 25.4425 8.0302 26.2301C7.24255 27.0178 6.80005 28.0861 6.80005 29.2V30.6ZM28.5 14.5C28.5 12.4578 27.6888 10.4993 26.2448 9.05527C24.8007 7.61124 22.8422 6.79999 20.8 6.79999C18.7579 6.79999 16.7994 7.61124 15.3553 9.05527C13.9113 10.4993 13.1 12.4578 13.1 14.5C13.1 16.5422 13.9113 18.5007 15.3553 19.9447C16.7994 21.3887 18.7579 22.2 20.8 22.2C22.8422 22.2 24.8007 21.3887 26.2448 19.9447C27.6888 18.5007 28.5 16.5422 28.5 14.5ZM50.9001 14.5C50.9001 12.4578 50.0888 10.4993 48.6448 9.05527C47.2007 7.61124 45.2422 6.79999 43.2001 6.79999C41.1579 6.79999 39.1994 7.61124 37.7553 9.05527C36.3113 10.4993 35.5001 12.4578 35.5001 14.5C35.5001 16.5422 36.3113 18.5007 37.7553 19.9447C39.1994 21.3887 41.1579 22.2 43.2001 22.2C45.2422 22.2 47.2007 21.3887 48.6448 19.9447C50.0888 18.5007 50.9001 16.5422 50.9001 14.5Z" fill="white"/>
</svg>
